<?xml version="1.0" encoding="UTF-8" standalone="no"?>
<!-- Created with Inkscape (http://www.inkscape.org/) -->

<svg
   xmlns:dc="http://purl.org/dc/elements/1.1/"
   xmlns:cc="http://creativecommons.org/ns#"
   xmlns:rdf="http://www.w3.org/1999/02/22-rdf-syntax-ns#"
   xmlns:svg="http://www.w3.org/2000/svg"
   xmlns="http://www.w3.org/2000/svg"
   xmlns:sodipodi="http://sodipodi.sourceforge.net/DTD/sodipodi-0.dtd"
   xmlns:inkscape="http://www.inkscape.org/namespaces/inkscape"
   width="63.083439mm"
   height="28.973284mm"
   viewBox="0 0 223.524 102.66124"
   id="svg12619"
   version="1.1"
   inkscape:version="0.91 r13725"
   sodipodi:docname="logo.svg"
   inkscape:export-filename="C:\Users\Jett\Documents\Programming\DesignByNature\Bootstrap\img\logo.png"
   inkscape:export-xdpi="40.264133"
   inkscape:export-ydpi="40.264133">
  <defs
     id="defs12621" />
  <sodipodi:namedview
     id="base"
     pagecolor="#ffffff"
     bordercolor="#666666"
     borderopacity="1.0"
     inkscape:pageopacity="0.0"
     inkscape:pageshadow="2"
     inkscape:zoom="1.979899"
     inkscape:cx="104.132"
     inkscape:cy="-6.5128237"
     inkscape:document-units="px"
     inkscape:current-layer="layer1"
     showgrid="false"
     fit-margin-top="0"
     fit-margin-left="0"
     fit-margin-right="0"
     fit-margin-bottom="0"
     inkscape:window-width="1920"
     inkscape:window-height="1017"
     inkscape:window-x="-8"
     inkscape:window-y="-8"
     inkscape:window-maximized="1" />
  <metadata
     id="metadata12624">
    <rdf:RDF>
      <cc:Work
         rdf:about="">
        <dc:format>image/svg+xml</dc:format>
        <dc:type
           rdf:resource="http://purl.org/dc/dcmitype/StillImage" />
        <dc:title></dc:title>
      </cc:Work>
    </rdf:RDF>
  </metadata>
  <g
     inkscape:label="Layer 1"
     inkscape:groupmode="layer"
     id="layer1"
     transform="translate(-225.38086,-338.17444)">
    <g
       transform="matrix(2.2778448,0,0,-2.2778448,520.37209,367.71089)"
       id="g5306"
       style="fill:#000000;fill-opacity:1;stroke:none;stroke-opacity:1">
      <path
         inkscape:connector-curvature="0"
         id="path5308"
         style="fill:#000000;fill-opacity:1;fill-rule:nonzero;stroke:none;stroke-opacity:1"
         d="m 0,0 c 0.641,0 1.145,0.122 1.511,0.367 0.366,0.245 0.55,0.613 0.55,1.103 l 0,0.03 c 0,0.459 -0.181,0.814 -0.542,1.064 -0.361,0.25 -0.913,0.375 -1.656,0.375 l -2.976,0 L -3.113,0 0,0 Z m -0.55,4.531 c 0.61,0 1.098,0.12 1.465,0.36 0.366,0.239 0.549,0.604 0.549,1.094 l 0,0.031 c 0,0.429 -0.16,0.763 -0.481,1.002 -0.32,0.24 -0.786,0.361 -1.396,0.361 l -2.7,0 0,-2.848 2.563,0 z m -4.431,4.516 4.798,0 c 1.232,0 2.164,-0.316 2.797,-0.949 0.478,-0.48 0.717,-1.072 0.717,-1.776 l 0,-0.031 C 3.331,5.965 3.288,5.677 3.202,5.427 3.116,5.177 3.005,4.957 2.869,4.768 2.731,4.579 2.57,4.413 2.383,4.271 2.195,4.128 2.006,4.005 1.813,3.903 2.128,3.791 2.414,3.661 2.673,3.513 2.932,3.365 3.155,3.189 3.342,2.985 3.53,2.781 3.675,2.541 3.776,2.265 3.878,1.99 3.929,1.668 3.929,1.301 l 0,-0.03 C 3.929,0.791 3.834,0.367 3.646,0 3.457,-0.367 3.19,-0.674 2.844,-0.919 2.497,-1.164 2.079,-1.35 1.591,-1.477 1.101,-1.605 0.561,-1.669 -0.029,-1.669 l -4.952,0 0,10.716 z" />
    </g>
    <g
       transform="matrix(2.2778448,0,0,-2.2778448,541.38521,361.88779)"
       id="g5310"
       style="fill:#000000;fill-opacity:1;stroke:none;stroke-opacity:1">
      <path
         inkscape:connector-curvature="0"
         id="path5312"
         style="fill:#000000;fill-opacity:1;fill-rule:nonzero;stroke:none;stroke-opacity:1"
         d="m 0,0 -4.256,6.49 2.22,0 3.001,-4.745 3.03,4.745 2.159,0 -4.256,-6.444 0,-4.271 L 0,-4.225 0,0 Z" />
    </g>
    <path
       inkscape:connector-curvature="0"
       id="path5314"
       style="fill:#000000;fill-opacity:1;fill-rule:nonzero;stroke:none;stroke-opacity:1"
       d="m 555.03132,381.55244 -46.03069,0 0,-2.80858 46.03069,0 0,2.80858 z" />
    <g
       transform="matrix(2.2778448,0,0,-2.2778448,351.87809,347.5843)"
       id="g5320"
       style="fill:#000000;fill-opacity:1;stroke:none;stroke-opacity:1">
      <path
         inkscape:connector-curvature="0"
         id="path5322"
         style="fill:#000000;fill-opacity:1;fill-rule:nonzero;stroke:none;stroke-opacity:1"
         d="m 0,0 10.845,0 0,-1.543 -9.152,0 0,-5.122 8.187,0 0,-1.544 -8.187,0 0,-5.251 9.259,0 0,-1.543 L 0,-15.003 0,0 Z" />
    </g>
    <g
       transform="matrix(2.2778448,0,0,-2.2778448,382.34016,376.77898)"
       id="g5324"
       style="fill:#000000;fill-opacity:1;stroke:none;stroke-opacity:1">
      <path
         inkscape:connector-curvature="0"
         id="path5326"
         style="fill:#000000;fill-opacity:1;fill-rule:nonzero;stroke:none;stroke-opacity:1"
         d="m 0,0 1.05,1.243 c 1.565,-1.414 3.065,-2.122 5.144,-2.122 2.015,0 3.344,1.072 3.344,2.551 l 0,0.043 C 9.538,3.108 8.787,3.901 5.637,4.566 2.186,5.315 0.6,6.43 0.6,8.895 l 0,0.042 c 0,2.358 2.079,4.094 4.929,4.094 2.186,0 3.751,-0.621 5.273,-1.843 L 9.816,9.881 C 8.423,11.017 7.03,11.51 5.487,11.51 3.536,11.51 2.293,10.438 2.293,9.088 l 0,-0.043 C 2.293,7.63 3.065,6.838 6.365,6.13 9.709,5.401 11.252,4.179 11.252,1.886 l 0,-0.043 C 11.252,-0.728 9.109,-2.4 6.13,-2.4 3.751,-2.4 1.8,-1.607 0,0" />
    </g>
    <path
       inkscape:connector-curvature="0"
       id="path5328"
       style="fill:#000000;fill-opacity:1;fill-rule:nonzero;stroke:none;stroke-opacity:1"
       d="m 416.17162,347.58293 3.85639,0 0,34.17451 -3.85639,0 0,-34.17451 z" />
    <g
       transform="matrix(2.2778448,0,0,-2.2778448,428.52097,364.7686)"
       id="g5330"
       style="fill:#000000;fill-opacity:1;stroke:none;stroke-opacity:1">
      <path
         inkscape:connector-curvature="0"
         id="path5332"
         style="fill:#000000;fill-opacity:1;fill-rule:nonzero;stroke:none;stroke-opacity:1"
         d="m 0,0 0,0.043 c 0,4.115 3.022,7.758 7.523,7.758 2.529,0 4.094,-0.728 5.594,-1.992 L 12.024,4.522 C 10.867,5.53 9.58,6.237 7.459,6.237 4.136,6.237 1.757,3.429 1.757,0.086 l 0,-0.043 c 0,-3.58 2.294,-6.237 5.937,-6.237 1.715,0 3.301,0.664 4.33,1.5 l 0,3.729 -4.565,0 0,1.522 6.194,0 0,-5.979 C 12.26,-6.665 10.159,-7.716 7.63,-7.716 2.915,-7.716 0,-4.286 0,0" />
    </g>
    <g
       transform="matrix(2.2778448,0,0,-2.2778448,468.30693,347.5843)"
       id="g5334"
       style="fill:#000000;fill-opacity:1;stroke:none;stroke-opacity:1">
      <path
         inkscape:connector-curvature="0"
         id="path5336"
         style="fill:#000000;fill-opacity:1;fill-rule:nonzero;stroke:none;stroke-opacity:1"
         d="m 0,0 1.586,0 9.452,-12.024 0,12.024 1.651,0 0,-15.003 -1.351,0 -9.687,12.303 0,-12.303 -1.651,0 L 0,0 Z" />
    </g>
    <g
       transform="matrix(2.2778448,0,0,-2.2778448,387.16761,415.97887)"
       id="g5342"
       style="fill:#000000;fill-opacity:1;stroke:none;stroke-opacity:1">
      <path
         inkscape:connector-curvature="0"
         id="path5344"
         style="fill:#000000;fill-opacity:1;fill-rule:nonzero;stroke:none;stroke-opacity:1"
         d="M 0,0 -4.07,9.112 -8.165,0 0,0 Z m -4.991,11.467 1.894,0 8.165,-18.045 -2.176,0 -2.099,4.735 -9.751,0 -2.125,-4.735 -2.073,0 8.165,18.045 z" />
    </g>
    <g
       transform="matrix(2.2778448,0,0,-2.2778448,412.29405,394.407)"
       id="g5346"
       style="fill:#000000;fill-opacity:1;stroke:none;stroke-opacity:1">
      <path
         inkscape:connector-curvature="0"
         id="path5348"
         style="fill:#000000;fill-opacity:1;fill-rule:nonzero;stroke:none;stroke-opacity:1"
         d="m 0,0 -6.015,0 0,1.868 14.077,0 0,-1.868 -6.014,0 0,-16.049 -2.048,0 L 0,0 Z" />
    </g>
    <g
       transform="matrix(2.2778448,0,0,-2.2778448,438.64371,413.8803)"
       id="g5350"
       style="fill:#000000;fill-opacity:1;stroke:none;stroke-opacity:1">
      <path
         inkscape:connector-curvature="0"
         id="path5352"
         style="fill:#000000;fill-opacity:1;fill-rule:nonzero;stroke:none;stroke-opacity:1"
         d="m 0,0 0,10.417 2.022,0 0,-10.289 c 0,-3.865 2.073,-6.041 5.478,-6.041 3.302,0 5.4,1.997 5.4,5.913 l 0,10.417 2.022,0 0,-10.264 c 0,-5.221 -2.994,-7.934 -7.474,-7.934 C 3.021,-7.781 0,-5.068 0,0" />
    </g>
    <g
       transform="matrix(2.2778448,0,0,-2.2778448,500.67556,410.96533)"
       id="g5354"
       style="fill:#000000;fill-opacity:1;stroke:none;stroke-opacity:1">
      <path
         inkscape:connector-curvature="0"
         id="path5356"
         style="fill:#000000;fill-opacity:1;fill-rule:nonzero;stroke:none;stroke-opacity:1"
         d="m 0,0 c 2.687,0 4.607,1.382 4.607,3.686 l 0,0.051 c 0,2.201 -1.689,3.532 -4.581,3.532 l -5.529,0 L -5.503,0 0,0 Z m -7.525,9.138 7.704,0 c 2.201,0 3.967,-0.666 5.094,-1.792 0.87,-0.87 1.382,-2.124 1.382,-3.532 l 0,-0.051 c 0,-2.97 -2.048,-4.71 -4.864,-5.222 l 5.503,-7.32 -2.482,0 -5.196,6.962 -5.119,0 0,-6.962 -2.022,0 0,17.917 z" />
    </g>
    <g
       transform="matrix(2.2778448,0,0,-2.2778448,525.68403,390.15109)"
       id="g5358"
       style="fill:#000000;fill-opacity:1;stroke:none;stroke-opacity:1">
      <path
         inkscape:connector-curvature="0"
         id="path5360"
         style="fill:#000000;fill-opacity:1;fill-rule:nonzero;stroke:none;stroke-opacity:1"
         d="m 0,0 12.951,0 0,-1.843 -10.929,0 0,-6.117 9.777,0 0,-1.843 -9.777,0 0,-6.271 11.057,0 0,-1.843 L 0,-17.917 0,0 Z" />
    </g>
    <g
       transform="matrix(2.2778448,0,0,-2.2778448,520.37209,367.71089)"
       id="g5362"
       style="fill:#000000;fill-opacity:1;stroke:none;stroke-opacity:1">
      <path
         inkscape:connector-curvature="0"
         id="path5364"
         style="fill:#000000;fill-opacity:1;fill-rule:nonzero;stroke:none;stroke-opacity:1"
         d="m 0,0 c 0.641,0 1.145,0.122 1.511,0.367 0.366,0.245 0.55,0.613 0.55,1.103 l 0,0.03 c 0,0.459 -0.181,0.814 -0.542,1.064 -0.361,0.25 -0.913,0.375 -1.656,0.375 l -2.976,0 L -3.113,0 0,0 Z m -0.55,4.531 c 0.61,0 1.098,0.12 1.465,0.36 0.366,0.239 0.549,0.604 0.549,1.094 l 0,0.031 c 0,0.429 -0.16,0.763 -0.481,1.002 -0.32,0.24 -0.786,0.361 -1.396,0.361 l -2.7,0 0,-2.848 2.563,0 z m -4.431,4.516 4.798,0 c 1.232,0 2.164,-0.316 2.797,-0.949 0.478,-0.48 0.717,-1.072 0.717,-1.776 l 0,-0.031 C 3.331,5.965 3.288,5.677 3.202,5.427 3.116,5.177 3.005,4.957 2.869,4.768 2.731,4.579 2.57,4.413 2.383,4.271 2.195,4.128 2.006,4.005 1.813,3.903 2.128,3.791 2.414,3.661 2.673,3.513 2.932,3.365 3.155,3.189 3.342,2.985 3.53,2.781 3.675,2.541 3.776,2.265 3.878,1.99 3.929,1.668 3.929,1.301 l 0,-0.03 C 3.929,0.791 3.834,0.367 3.646,0 3.457,-0.367 3.19,-0.674 2.844,-0.919 2.497,-1.164 2.079,-1.35 1.591,-1.477 1.101,-1.605 0.561,-1.669 -0.029,-1.669 l -4.952,0 0,10.716 z" />
    </g>
    <g
       transform="matrix(2.2778448,0,0,-2.2778448,541.38521,361.88779)"
       id="g5366"
       style="fill:#000000;fill-opacity:1;stroke:none;stroke-opacity:1">
      <path
         inkscape:connector-curvature="0"
         id="path5368"
         style="fill:#000000;fill-opacity:1;fill-rule:nonzero;stroke:none;stroke-opacity:1"
         d="m 0,0 -4.256,6.49 2.22,0 3.001,-4.745 3.03,4.745 2.159,0 -4.256,-6.444 0,-4.271 L 0,-4.225 0,0 Z" />
    </g>
    <path
       inkscape:connector-curvature="0"
       id="path5370"
       style="fill:#000000;fill-opacity:1;fill-rule:nonzero;stroke:none;stroke-opacity:1"
       d="m 555.03132,381.55244 -46.03069,0 0,-2.80858 46.03069,0 0,2.80858 z" />
    <g
       transform="matrix(2.2778448,0,0,-2.2778448,351.87809,347.5843)"
       id="g5376"
       style="fill:#000000;fill-opacity:1;stroke:none;stroke-opacity:1">
      <path
         inkscape:connector-curvature="0"
         id="path5378"
         style="fill:#000000;fill-opacity:1;fill-rule:nonzero;stroke:none;stroke-opacity:1"
         d="m 0,0 10.845,0 0,-1.543 -9.152,0 0,-5.122 8.187,0 0,-1.544 -8.187,0 0,-5.251 9.259,0 0,-1.543 L 0,-15.003 0,0 Z" />
    </g>
    <g
       transform="matrix(2.2778448,0,0,-2.2778448,382.34016,376.77898)"
       id="g5380"
       style="fill:#000000;fill-opacity:1;stroke:none;stroke-opacity:1">
      <path
         inkscape:connector-curvature="0"
         id="path5382"
         style="fill:#000000;fill-opacity:1;fill-rule:nonzero;stroke:none;stroke-opacity:1"
         d="m 0,0 1.05,1.243 c 1.565,-1.414 3.065,-2.122 5.144,-2.122 2.015,0 3.344,1.072 3.344,2.551 l 0,0.043 C 9.538,3.108 8.787,3.901 5.637,4.566 2.186,5.315 0.6,6.43 0.6,8.895 l 0,0.042 c 0,2.358 2.079,4.094 4.929,4.094 2.186,0 3.751,-0.621 5.273,-1.843 L 9.816,9.881 C 8.423,11.017 7.03,11.51 5.487,11.51 3.536,11.51 2.293,10.438 2.293,9.088 l 0,-0.043 C 2.293,7.63 3.065,6.838 6.365,6.13 9.709,5.401 11.252,4.179 11.252,1.886 l 0,-0.043 C 11.252,-0.728 9.109,-2.4 6.13,-2.4 3.751,-2.4 1.8,-1.607 0,0" />
    </g>
    <path
       inkscape:connector-curvature="0"
       id="path5384"
       style="fill:#000000;fill-opacity:1;fill-rule:nonzero;stroke:none;stroke-opacity:1"
       d="m 416.17162,347.58293 3.85639,0 0,34.17451 -3.85639,0 0,-34.17451 z" />
    <g
       transform="matrix(2.2778448,0,0,-2.2778448,428.52097,364.7686)"
       id="g5386"
       style="fill:#000000;fill-opacity:1;stroke:none;stroke-opacity:1">
      <path
         inkscape:connector-curvature="0"
         id="path5388"
         style="fill:#000000;fill-opacity:1;fill-rule:nonzero;stroke:none;stroke-opacity:1"
         d="m 0,0 0,0.043 c 0,4.115 3.022,7.758 7.523,7.758 2.529,0 4.094,-0.728 5.594,-1.992 L 12.024,4.522 C 10.867,5.53 9.58,6.237 7.459,6.237 4.136,6.237 1.757,3.429 1.757,0.086 l 0,-0.043 c 0,-3.58 2.294,-6.237 5.937,-6.237 1.715,0 3.301,0.664 4.33,1.5 l 0,3.729 -4.565,0 0,1.522 6.194,0 0,-5.979 C 12.26,-6.665 10.159,-7.716 7.63,-7.716 2.915,-7.716 0,-4.286 0,0" />
    </g>
    <g
       transform="matrix(2.2778448,0,0,-2.2778448,468.30693,347.5843)"
       id="g5390"
       style="fill:#000000;fill-opacity:1;stroke:none;stroke-opacity:1">
      <path
         inkscape:connector-curvature="0"
         id="path5392"
         style="fill:#000000;fill-opacity:1;fill-rule:nonzero;stroke:none;stroke-opacity:1"
         d="m 0,0 1.586,0 9.452,-12.024 0,12.024 1.651,0 0,-15.003 -1.351,0 -9.687,12.303 0,-12.303 -1.651,0 L 0,0 Z" />
    </g>
    <g
       transform="matrix(2.2778448,0,0,-2.2778448,387.16761,415.97887)"
       id="g5398"
       style="fill:#000000;fill-opacity:1;stroke:none;stroke-opacity:1">
      <path
         inkscape:connector-curvature="0"
         id="path5400"
         style="fill:#000000;fill-opacity:1;fill-rule:nonzero;stroke:none;stroke-opacity:1"
         d="M 0,0 -4.07,9.112 -8.165,0 0,0 Z m -4.991,11.467 1.894,0 8.165,-18.045 -2.176,0 -2.099,4.735 -9.751,0 -2.125,-4.735 -2.073,0 8.165,18.045 z" />
    </g>
    <g
       transform="matrix(2.2778448,0,0,-2.2778448,412.29405,394.407)"
       id="g5402"
       style="fill:#000000;fill-opacity:1;stroke:none;stroke-opacity:1">
      <path
         inkscape:connector-curvature="0"
         id="path5404"
         style="fill:#000000;fill-opacity:1;fill-rule:nonzero;stroke:none;stroke-opacity:1"
         d="m 0,0 -6.015,0 0,1.868 14.077,0 0,-1.868 -6.014,0 0,-16.049 -2.048,0 L 0,0 Z" />
    </g>
    <g
       transform="matrix(2.2778448,0,0,-2.2778448,438.64371,413.8803)"
       id="g5406"
       style="fill:#000000;fill-opacity:1;stroke:none;stroke-opacity:1">
      <path
         inkscape:connector-curvature="0"
         id="path5408"
         style="fill:#000000;fill-opacity:1;fill-rule:nonzero;stroke:none;stroke-opacity:1"
         d="m 0,0 0,10.417 2.022,0 0,-10.289 c 0,-3.865 2.073,-6.041 5.478,-6.041 3.302,0 5.4,1.997 5.4,5.913 l 0,10.417 2.022,0 0,-10.264 c 0,-5.221 -2.994,-7.934 -7.474,-7.934 C 3.021,-7.781 0,-5.068 0,0" />
    </g>
    <g
       transform="matrix(2.2778448,0,0,-2.2778448,500.67556,410.96533)"
       id="g5410"
       style="fill:#000000;fill-opacity:1;stroke:none;stroke-opacity:1">
      <path
         inkscape:connector-curvature="0"
         id="path5412"
         style="fill:#000000;fill-opacity:1;fill-rule:nonzero;stroke:none;stroke-opacity:1"
         d="m 0,0 c 2.687,0 4.607,1.382 4.607,3.686 l 0,0.051 c 0,2.201 -1.689,3.532 -4.581,3.532 l -5.529,0 L -5.503,0 0,0 Z m -7.525,9.138 7.704,0 c 2.201,0 3.967,-0.666 5.094,-1.792 0.87,-0.87 1.382,-2.124 1.382,-3.532 l 0,-0.051 c 0,-2.97 -2.048,-4.71 -4.864,-5.222 l 5.503,-7.32 -2.482,0 -5.196,6.962 -5.119,0 0,-6.962 -2.022,0 0,17.917 z" />
    </g>
    <g
       transform="matrix(2.2778448,0,0,-2.2778448,525.68403,390.15109)"
       id="g5414"
       style="fill:#000000;fill-opacity:1;stroke:none;stroke-opacity:1">
      <path
         inkscape:connector-curvature="0"
         id="path5416"
         style="fill:#000000;fill-opacity:1;fill-rule:nonzero;stroke:none;stroke-opacity:1"
         d="m 0,0 12.951,0 0,-1.843 -10.929,0 0,-6.117 9.777,0 0,-1.843 -9.777,0 0,-6.271 11.057,0 0,-1.843 L 0,-17.917 0,0 Z" />
    </g>
    <path
       d="m 226.15836,439.51431 49.555,0 0,-49.55625 -49.555,0 0,49.55625 z m 50.3325,0.77875 -51.11,0 0,-51.1125 51.11,0 0,51.1125 z"
       style="fill:#000000;fill-opacity:1;fill-rule:nonzero;stroke:none;stroke-opacity:1"
       id="path5252"
       inkscape:connector-curvature="0" />
    <g
       id="g5254"
       transform="matrix(1.25,0,0,-1.25,232.45661,393.87443)"
       style="fill:#000000;fill-opacity:1;stroke:none;stroke-opacity:1">
      <path
         d="M 0,0 14.851,-36.758 51.606,-21.908 36.757,14.849 0,0 Z M 14.507,-37.569 -0.811,0.344 37.101,15.66 52.417,-22.251 14.507,-37.569 Z"
         style="fill:#000000;fill-opacity:1;fill-rule:nonzero;stroke:none;stroke-opacity:1"
         id="path5256"
         inkscape:connector-curvature="0" />
    </g>
    <g
       id="g5258"
       transform="matrix(1.25,0,0,-1.25,244.62486,397.66981)"
       style="fill:#000000;fill-opacity:1;stroke:none;stroke-opacity:1">
      <path
         d="M 0,0 24.741,-25.621 50.362,-0.88 25.621,24.741 0,0 Z M 24.726,-26.501 -0.88,0.015 25.636,25.621 51.242,-0.895 24.726,-26.501 Z"
         style="fill:#000000;fill-opacity:1;fill-rule:nonzero;stroke:none;stroke-opacity:1"
         id="path5260"
         inkscape:connector-curvature="0" />
    </g>
    <g
       id="g5262"
       transform="matrix(1.25,0,0,-1.25,254.81286,397.52718)"
       style="fill:#000000;fill-opacity:1;stroke:none;stroke-opacity:1">
      <path
         d="M 0,0 29.228,-13.012 42.241,16.213 13.014,29.227 0,0 Z M 29.543,-13.834 -0.822,-0.315 12.699,30.049 43.063,16.529 29.543,-13.834 Z"
         style="fill:#000000;fill-opacity:1;fill-rule:nonzero;stroke:none;stroke-opacity:1"
         id="path5264"
         inkscape:connector-curvature="0" />
    </g>
    <g
       id="g5266"
       transform="matrix(1.25,0,0,-1.25,263.76811,394.02806)"
       style="fill:#000000;fill-opacity:1;stroke:none;stroke-opacity:1">
      <path
         d="M 0,0 28.715,-1.004 29.716,27.71 1.003,28.712 0,0 Z M 29.315,-1.648 -0.644,-0.6 0.402,29.356 30.36,28.31 29.315,-1.648 Z"
         style="fill:#000000;fill-opacity:1;fill-rule:nonzero;stroke:none;stroke-opacity:1"
         id="path5268"
         inkscape:connector-curvature="0" />
    </g>
    <g
       id="g5270"
       transform="matrix(1.25,0,0,-1.25,258.84849,357.79943)"
       style="fill:#000000;fill-opacity:1;stroke:none;stroke-opacity:1">
      <path
         d="m 0,0 8.823,-24.243 24.24,8.824 L 24.241,8.82 0,0 Z m 8.451,-25.042 -9.25,25.414 25.412,9.246 9.248,-25.409 -25.41,-9.251 z"
         style="fill:#000000;fill-opacity:1;fill-rule:nonzero;stroke:none;stroke-opacity:1"
         id="path5272"
         inkscape:connector-curvature="0" />
    </g>
    <g
       id="g5274"
       transform="matrix(1.25,0,0,-1.25,249.93324,362.55694)"
       style="fill:#000000;fill-opacity:1;stroke:none;stroke-opacity:1">
      <path
         d="M 0,0 18.675,-9.107 27.783,9.567 9.108,18.674 0,0 Z M 18.962,-9.94 -0.833,-0.287 8.822,19.506 28.615,9.853 18.962,-9.94 Z"
         style="fill:#000000;fill-opacity:1;fill-rule:nonzero;stroke:none;stroke-opacity:1"
         id="path5276"
         inkscape:connector-curvature="0" />
    </g>
    <g
       id="g5278"
       transform="matrix(1.25,0,0,-1.25,247.93361,366.54418)"
       style="fill:#000000;fill-opacity:1;stroke:none;stroke-opacity:1">
      <path
         d="m 0,0 18.592,-1.3 1.3,18.592 L 1.301,18.59 0,0 Z M 19.169,-1.964 -0.664,-0.577 0.723,19.254 20.557,17.869 19.169,-1.964 Z"
         style="fill:#000000;fill-opacity:1;fill-rule:nonzero;stroke:none;stroke-opacity:1"
         id="path5280"
         inkscape:connector-curvature="0" />
    </g>
    <g
       id="g5282"
       transform="matrix(1.25,0,0,-1.25,241.13936,350.67406)"
       style="fill:#000000;fill-opacity:1;stroke:none;stroke-opacity:1">
      <path
         d="M 0,0 5.162,-15.893 21.055,-10.73 15.891,5.162 0,0 Z M 4.763,-16.679 -0.785,0.399 16.291,5.948 21.84,-11.129 4.763,-16.679 Z"
         style="fill:#000000;fill-opacity:1;fill-rule:nonzero;stroke:none;stroke-opacity:1"
         id="path5284"
         inkscape:connector-curvature="0" />
    </g>
    <g
       id="g5286"
       transform="matrix(1.25,0,0,-1.25,236.44136,359.65819)"
       style="fill:#000000;fill-opacity:1;stroke:none;stroke-opacity:1">
      <path
         d="M 0,0 9.627,-11.473 21.101,-1.846 11.473,9.627 0,0 Z M 9.55,-12.35 -0.878,0.077 11.551,10.504 21.978,-1.923 9.55,-12.35 Z"
         style="fill:#000000;fill-opacity:1;fill-rule:nonzero;stroke:none;stroke-opacity:1"
         id="path5288"
         inkscape:connector-curvature="0" />
    </g>
    <g
       id="g5290"
       transform="matrix(1.25,0,0,-1.25,235.62786,368.67631)"
       style="fill:#000000;fill-opacity:1;stroke:none;stroke-opacity:1">
      <path
         d="M 0,0 11.846,-6.299 18.146,5.547 6.299,11.845 0,0 Z M 12.103,-7.142 -0.842,-0.258 6.041,12.687 18.988,5.805 12.103,-7.142 Z"
         style="fill:#000000;fill-opacity:1;fill-rule:nonzero;stroke:none;stroke-opacity:1"
         id="path5292"
         inkscape:connector-curvature="0" />
    </g>
    <g
       id="g5294"
       transform="matrix(1.25,0,0,-1.25,238.71773,375.26506)"
       style="fill:#000000;fill-opacity:1;stroke:none;stroke-opacity:1">
      <path
         d="M 0,0 11.946,-1.257 13.203,10.69 1.256,11.946 0,0 Z M 12.5,-1.941 -0.685,-0.554 0.702,12.631 13.888,11.245 12.5,-1.941 Z"
         style="fill:#000000;fill-opacity:1;fill-rule:nonzero;stroke:none;stroke-opacity:1"
         id="path5296"
         inkscape:connector-curvature="0" />
    </g>
    <g
       id="g5298"
       transform="matrix(1.25,0,0,-1.25,239.59561,366.79469)"
       style="fill:#000000;fill-opacity:1;stroke:none;stroke-opacity:1">
      <path
         d="M 0,0 2.962,-10.332 13.297,-7.369 10.334,2.963 0,0 Z M 2.535,-11.103 -0.77,0.427 10.76,3.733 14.068,-7.795 2.535,-11.103 Z"
         style="fill:#000000;fill-opacity:1;fill-rule:nonzero;stroke:none;stroke-opacity:1"
         id="path5300"
         inkscape:connector-curvature="0" />
    </g>
    <g
       id="g5302"
       transform="matrix(1.25,0,0,-1.25,241.42373,372.32556)"
       style="fill:#000000;fill-opacity:1;stroke:none;stroke-opacity:1">
      <path
         d="M 0,0 5.918,-7.574 13.494,-1.655 7.574,5.919 0,0 Z M 5.81,-8.447 -0.874,0.107 7.681,6.793 14.367,-1.762 5.81,-8.447 Z"
         style="fill:#000000;fill-opacity:1;fill-rule:nonzero;stroke:none;stroke-opacity:1"
         id="path5304"
         inkscape:connector-curvature="0" />
    </g>
    <g
       id="g5316"
       transform="matrix(2.2778448,0,0,-2.2778448,317.55962,351.14709)"
       style="fill:#000000;fill-opacity:1;stroke:none;stroke-opacity:1">
      <path
         d="m 0,0 0,-11.874 3.515,0 c 3.794,0 6.216,2.572 6.216,5.894 l 0,0.043 C 9.731,-2.615 7.309,0 3.515,0 L 0,0 Z m -1.693,1.564 5.208,0 c 4.715,0 7.973,-3.236 7.973,-7.458 l 0,-0.043 c 0,-4.222 -3.258,-7.502 -7.973,-7.502 l -5.208,0 0,15.003 z"
         style="fill:#000000;fill-opacity:1;fill-rule:nonzero;stroke:none;stroke-opacity:1"
         id="path5318"
         inkscape:connector-curvature="0" />
    </g>
    <g
       id="g5338"
       transform="matrix(2.2778448,0,0,-2.2778448,314.6417,390.15109)"
       style="fill:#000000;fill-opacity:1;stroke:none;stroke-opacity:1">
      <path
         d="m 0,0 1.894,0 11.288,-14.359 0,14.359 1.971,0 0,-17.917 -1.613,0 -11.569,14.692 0,-14.692 -1.971,0 L 0,0 Z"
         style="fill:#000000;fill-opacity:1;fill-rule:nonzero;stroke:none;stroke-opacity:1"
         id="path5340"
         inkscape:connector-curvature="0" />
    </g>
    <g
       id="g5372"
       transform="matrix(2.2778448,0,0,-2.2778448,317.55962,351.14709)"
       style="fill:#000000;fill-opacity:1;stroke:none;stroke-opacity:1">
      <path
         d="m 0,0 0,-11.874 3.515,0 c 3.794,0 6.216,2.572 6.216,5.894 l 0,0.043 C 9.731,-2.615 7.309,0 3.515,0 L 0,0 Z m -1.693,1.564 5.208,0 c 4.715,0 7.973,-3.236 7.973,-7.458 l 0,-0.043 c 0,-4.222 -3.258,-7.502 -7.973,-7.502 l -5.208,0 0,15.003 z"
         style="fill:#000000;fill-opacity:1;fill-rule:nonzero;stroke:none;stroke-opacity:1"
         id="path5374"
         inkscape:connector-curvature="0" />
    </g>
    <g
       id="g5394"
       transform="matrix(2.2778448,0,0,-2.2778448,314.6417,390.15109)"
       style="fill:#000000;fill-opacity:1;stroke:none;stroke-opacity:1">
      <path
         d="m 0,0 1.894,0 11.288,-14.359 0,14.359 1.971,0 0,-17.917 -1.613,0 -11.569,14.692 0,-14.692 -1.971,0 L 0,0 Z"
         style="fill:#000000;fill-opacity:1;fill-rule:nonzero;stroke:none;stroke-opacity:1"
         id="path5396"
         inkscape:connector-curvature="0" />
    </g>
    <g
       id="g5418"
       transform="matrix(1.25,0,0,-1.25,253.69973,359.40606)"
       style="fill:#000000;fill-opacity:1;stroke:none;stroke-opacity:1">
      <path
         d="M 0,0 15.495,-17.208 32.701,-1.716 17.208,15.493 0,0 Z M 15.448,-18.087 -0.879,0.046 -0.648,0.255 17.255,16.372 17.463,16.141 33.58,-1.762 15.448,-18.087 Z"
         style="fill:#000000;fill-opacity:1;fill-rule:nonzero;stroke:none;stroke-opacity:1"
         id="path5420"
         inkscape:connector-curvature="0" />
    </g>
  </g>
</svg>
